# xmcd CD database file
#
# Track frame offsets:
#	150
#	15359
#	71895
#	96899
#	130982
#	146084
#	172295
#	204105
#	261823
#	265463
#	299724
#
# Disc length: 4381 seconds
#
# Revision: 0
# Processed by: cddbd v1.5PL3 Copyright (c) Steve Scherf et al.
# Submitted via: CDex 1.51
#
DISCID=b1111b0b
DTITLE=collectif slang - Slanguistics
DYEAR=2000
DGENRE=Jazz
TTITLE0=cutting contest
TTITLE1=lux hotel
TTITLE2=basic indien (dans de l'eau)
TTITLE3=let's sink
TTITLE4=walkin' on the eggs
TTITLE5=hey! nick...super
TTITLE6=slang collector
TTITLE7=périf', fais moi peur
TTITLE8=payes ta flûte #
TTITLE9=tri-zoo-en-3-parties
TTITLE10=the flying drum
EXTD=YEAR: 2000
EXTT0=
EXTT1=
EXTT2=
EXTT3=
EXTT4=
EXTT5=
EXTT6=
EXTT7=
EXTT8=
EXTT9=
EXTT10=
PLAYORDER=
